<svg width="451" height="293" viewBox="0 0 451 293" fill="none" xmlns="http://www.w3.org/2000/svg">
<path d="M449 44.7793C449 43.4697 449 2 406.221 2H44.7793C30.5195 2 2 10.3812 2 43.9062V185.34C2 199.6 10.3813 228.119 43.9062 228.119H135C135 241.389 131.211 271.771 87.9951 290.542C121.869 290.542 230 282 230 228.119H406.221C420.48 228.119 449 219.738 449 186.213V44.7793Z" fill="white"/>
<path d="M406.221 228.119C420.48 228.119 449 219.738 449 186.213V44.7793C449 43.4697 449 2 406.221 2H44.7793C30.5195 2 2 10.3812 2 43.9062M406.221 228.119H230M406.221 228.119C353.027 228.119 302.824 228.119 230 228.119M43.9062 228.119C10.3812 228.119 2 199.6 2 185.34M43.9062 228.119C58.4878 228.119 74.0973 228.119 135 228.119M43.9062 228.119H135M2 185.34C2 152.164 2 77.4313 2 43.9062M2 185.34V43.9062M230 228.119C230 282 121.869 290.542 87.9951 290.542C131.211 271.771 135 241.389 135 228.119M230 228.119C220.204 228.119 144.381 228.119 135 228.119M230 228.119H135" stroke="black" stroke-width="4"/>
<rect width="91" height="7" transform="matrix(-1 0 0 1 228 225)" fill="white"/>
</svg>
