<svg width="451" height="293" viewBox="0 0 451 293" fill="none" xmlns="http://www.w3.org/2000/svg">
<path d="M2 44.7793C2 43.4697 2 2 44.7793 2H406.221C420.48 2 449 10.3812 449 43.9062V185.34C449 199.6 440.619 228.119 407.094 228.119H316C316 241.389 319.789 271.771 363.005 290.542C329.131 290.542 221 282 221 228.119H44.7793C30.5195 228.119 2 219.738 2 186.213V44.7793Z" fill="white"/>
<path d="M44.7793 228.119C30.5195 228.119 2 219.738 2 186.213V44.7793C2 43.4697 2 2 44.7793 2H406.221C420.48 2 449 10.3812 449 43.9062M44.7793 228.119H221M44.7793 228.119C97.9733 228.119 148.176 228.119 221 228.119M407.094 228.119C440.619 228.119 449 199.6 449 185.34M407.094 228.119C392.512 228.119 376.903 228.119 316 228.119M407.094 228.119H316M449 185.34C449 152.164 449 77.4313 449 43.9062M449 185.34V43.9062M221 228.119C221 282 329.131 290.542 363.005 290.542C319.789 271.771 316 241.389 316 228.119M221 228.119C230.796 228.119 306.619 228.119 316 228.119M221 228.119H316" stroke="#EAA350" stroke-width="4"/>
<rect x="223" y="225" width="91" height="6" fill="white"/>
</svg>
